<mxfile host="Electron" agent="Mozilla/5.0 (Macintosh; Intel Mac OS X 10_15_7) AppleWebKit/537.36 (KHTML, like Gecko) draw.io/26.0.9 Chrome/128.0.6613.186 Electron/32.2.5 Safari/537.36" version="26.0.9">
  <diagram name="Page-1" id="dBuLCFQsL3gTptjGALky">
    <mxGraphModel dx="954" dy="613" grid="1" gridSize="10" guides="1" tooltips="1" connect="1" arrows="1" fold="1" page="1" pageScale="1" pageWidth="850" pageHeight="1100" math="0" shadow="0">
      <root>
        <mxCell id="0" />
        <mxCell id="1" parent="0" />
        <mxCell id="u3Nmi6-fQTHw9-42GvUO-1" value="&lt;u&gt;Init&lt;/u&gt;&lt;div&gt;Setup LEDs, inputs, and outputs&lt;/div&gt;&lt;div&gt;&lt;br&gt;&lt;/div&gt;&lt;div&gt;&lt;br&gt;&lt;/div&gt;" style="strokeWidth=2;html=1;shape=mxgraph.flowchart.document2;whiteSpace=wrap;size=0.25;fillColor=#d5e8d4;strokeColor=#82b366;" parent="1" vertex="1">
          <mxGeometry x="130" y="100" width="100" height="100" as="geometry" />
        </mxCell>
        <mxCell id="u3Nmi6-fQTHw9-42GvUO-5" style="edgeStyle=orthogonalEdgeStyle;rounded=0;orthogonalLoop=1;jettySize=auto;html=1;exitX=0.5;exitY=1;exitDx=0;exitDy=0;exitPerimeter=0;entryX=0.5;entryY=0;entryDx=0;entryDy=0;" parent="1" source="u3Nmi6-fQTHw9-42GvUO-2" target="u3Nmi6-fQTHw9-42GvUO-3" edge="1">
          <mxGeometry relative="1" as="geometry" />
        </mxCell>
        <mxCell id="u3Nmi6-fQTHw9-42GvUO-2" value="HeartbeatLED" style="strokeWidth=2;html=1;shape=mxgraph.flowchart.terminator;whiteSpace=wrap;fillColor=#ffe6cc;strokeColor=#d79b00;" parent="1" vertex="1">
          <mxGeometry x="290" y="90" width="80" height="40" as="geometry" />
        </mxCell>
        <mxCell id="u3Nmi6-fQTHw9-42GvUO-3" value="Toggle LED every 1s" style="rounded=1;whiteSpace=wrap;html=1;absoluteArcSize=1;arcSize=14;strokeWidth=2;fillColor=#dae8fc;strokeColor=#6c8ebf;" parent="1" vertex="1">
          <mxGeometry x="305" y="140" width="50" height="50" as="geometry" />
        </mxCell>
        <mxCell id="u3Nmi6-fQTHw9-42GvUO-4" value="Ret" style="strokeWidth=2;html=1;shape=mxgraph.flowchart.terminator;whiteSpace=wrap;fillColor=#ffe6cc;strokeColor=#d79b00;" parent="1" vertex="1">
          <mxGeometry x="300" y="210" width="60" height="20" as="geometry" />
        </mxCell>
        <mxCell id="u3Nmi6-fQTHw9-42GvUO-7" style="edgeStyle=orthogonalEdgeStyle;rounded=0;orthogonalLoop=1;jettySize=auto;html=1;exitX=0.5;exitY=1;exitDx=0;exitDy=0;entryX=0.5;entryY=0;entryDx=0;entryDy=0;entryPerimeter=0;" parent="1" source="u3Nmi6-fQTHw9-42GvUO-3" target="u3Nmi6-fQTHw9-42GvUO-4" edge="1">
          <mxGeometry relative="1" as="geometry" />
        </mxCell>
        <mxCell id="u3Nmi6-fQTHw9-42GvUO-16" style="edgeStyle=orthogonalEdgeStyle;rounded=0;orthogonalLoop=1;jettySize=auto;html=1;exitX=0.5;exitY=1;exitDx=0;exitDy=0;exitPerimeter=0;entryX=0.5;entryY=0;entryDx=0;entryDy=0;" parent="1" source="u3Nmi6-fQTHw9-42GvUO-8" target="u3Nmi6-fQTHw9-42GvUO-13" edge="1">
          <mxGeometry relative="1" as="geometry" />
        </mxCell>
        <mxCell id="u3Nmi6-fQTHw9-42GvUO-8" value="System" style="strokeWidth=2;html=1;shape=mxgraph.flowchart.terminator;whiteSpace=wrap;fillColor=#ffe6cc;strokeColor=#d79b00;" parent="1" vertex="1">
          <mxGeometry x="170" y="240" width="80" height="40" as="geometry" />
        </mxCell>
        <mxCell id="9X_kFh0ea2oafQ-Dl5tj-7" style="edgeStyle=orthogonalEdgeStyle;rounded=0;orthogonalLoop=1;jettySize=auto;html=1;exitX=0.5;exitY=1;exitDx=0;exitDy=0;exitPerimeter=0;entryX=0.5;entryY=0;entryDx=0;entryDy=0;" edge="1" parent="1" source="u3Nmi6-fQTHw9-42GvUO-9" target="9X_kFh0ea2oafQ-Dl5tj-6">
          <mxGeometry relative="1" as="geometry" />
        </mxCell>
        <mxCell id="9X_kFh0ea2oafQ-Dl5tj-10" value="Yes" style="edgeLabel;html=1;align=center;verticalAlign=middle;resizable=0;points=[];" vertex="1" connectable="0" parent="9X_kFh0ea2oafQ-Dl5tj-7">
          <mxGeometry x="-0.5" y="-1" relative="1" as="geometry">
            <mxPoint as="offset" />
          </mxGeometry>
        </mxCell>
        <mxCell id="u3Nmi6-fQTHw9-42GvUO-9" value="Has unlock code been entered?" style="strokeWidth=2;html=1;shape=mxgraph.flowchart.decision;whiteSpace=wrap;fillColor=#fff2cc;strokeColor=#d6b656;" parent="1" vertex="1">
          <mxGeometry x="115" y="360" width="190" height="50" as="geometry" />
        </mxCell>
        <mxCell id="u3Nmi6-fQTHw9-42GvUO-11" style="edgeStyle=orthogonalEdgeStyle;rounded=0;orthogonalLoop=1;jettySize=auto;html=1;exitX=0;exitY=0.5;exitDx=0;exitDy=0;exitPerimeter=0;entryX=0;entryY=0.5;entryDx=0;entryDy=0;" parent="1" source="u3Nmi6-fQTHw9-42GvUO-9" target="u3Nmi6-fQTHw9-42GvUO-13" edge="1">
          <mxGeometry relative="1" as="geometry" />
        </mxCell>
        <mxCell id="u3Nmi6-fQTHw9-42GvUO-12" value="No" style="edgeLabel;html=1;align=center;verticalAlign=middle;resizable=0;points=[];" parent="u3Nmi6-fQTHw9-42GvUO-11" vertex="1" connectable="0">
          <mxGeometry x="-0.1375" y="2" relative="1" as="geometry">
            <mxPoint as="offset" />
          </mxGeometry>
        </mxCell>
        <mxCell id="u3Nmi6-fQTHw9-42GvUO-13" value="Locked state" style="rounded=1;whiteSpace=wrap;html=1;absoluteArcSize=1;arcSize=14;strokeWidth=2;fillColor=#dae8fc;strokeColor=#6c8ebf;" parent="1" vertex="1">
          <mxGeometry x="185" y="300" width="50" height="50" as="geometry" />
        </mxCell>
        <mxCell id="u3Nmi6-fQTHw9-42GvUO-17" style="edgeStyle=orthogonalEdgeStyle;rounded=0;orthogonalLoop=1;jettySize=auto;html=1;exitX=0.5;exitY=1;exitDx=0;exitDy=0;entryX=0.5;entryY=0;entryDx=0;entryDy=0;entryPerimeter=0;" parent="1" source="u3Nmi6-fQTHw9-42GvUO-13" target="u3Nmi6-fQTHw9-42GvUO-9" edge="1">
          <mxGeometry relative="1" as="geometry" />
        </mxCell>
        <mxCell id="u3Nmi6-fQTHw9-42GvUO-18" value="LEDStatus" style="strokeWidth=2;html=1;shape=mxgraph.flowchart.terminator;whiteSpace=wrap;fillColor=#ffe6cc;strokeColor=#d79b00;" parent="1" vertex="1">
          <mxGeometry x="345" y="250" width="80" height="40" as="geometry" />
        </mxCell>
        <mxCell id="u3Nmi6-fQTHw9-42GvUO-21" value="No" style="edgeStyle=orthogonalEdgeStyle;rounded=0;orthogonalLoop=1;jettySize=auto;html=1;" parent="1" source="u3Nmi6-fQTHw9-42GvUO-19" target="u3Nmi6-fQTHw9-42GvUO-20" edge="1">
          <mxGeometry relative="1" as="geometry" />
        </mxCell>
        <mxCell id="u3Nmi6-fQTHw9-42GvUO-29" style="edgeStyle=orthogonalEdgeStyle;rounded=0;orthogonalLoop=1;jettySize=auto;html=1;exitX=1;exitY=0.5;exitDx=0;exitDy=0;exitPerimeter=0;entryX=0;entryY=0.5;entryDx=0;entryDy=0;" parent="1" source="u3Nmi6-fQTHw9-42GvUO-19" target="u3Nmi6-fQTHw9-42GvUO-25" edge="1">
          <mxGeometry relative="1" as="geometry" />
        </mxCell>
        <mxCell id="u3Nmi6-fQTHw9-42GvUO-30" value="Yes" style="edgeLabel;html=1;align=center;verticalAlign=middle;resizable=0;points=[];" parent="u3Nmi6-fQTHw9-42GvUO-29" vertex="1" connectable="0">
          <mxGeometry x="-0.36" y="-1" relative="1" as="geometry">
            <mxPoint as="offset" />
          </mxGeometry>
        </mxCell>
        <mxCell id="u3Nmi6-fQTHw9-42GvUO-19" value="Is Locked?" style="strokeWidth=2;html=1;shape=mxgraph.flowchart.decision;whiteSpace=wrap;fillColor=#fff2cc;strokeColor=#d6b656;" parent="1" vertex="1">
          <mxGeometry x="335" y="310" width="100" height="50" as="geometry" />
        </mxCell>
        <mxCell id="u3Nmi6-fQTHw9-42GvUO-23" value="" style="edgeStyle=orthogonalEdgeStyle;rounded=0;orthogonalLoop=1;jettySize=auto;html=1;" parent="1" source="u3Nmi6-fQTHw9-42GvUO-20" edge="1">
          <mxGeometry relative="1" as="geometry">
            <mxPoint x="385" y="450" as="targetPoint" />
          </mxGeometry>
        </mxCell>
        <mxCell id="u3Nmi6-fQTHw9-42GvUO-24" value="No" style="edgeLabel;html=1;align=center;verticalAlign=middle;resizable=0;points=[];" parent="u3Nmi6-fQTHw9-42GvUO-23" vertex="1" connectable="0">
          <mxGeometry x="-0.075" relative="1" as="geometry">
            <mxPoint as="offset" />
          </mxGeometry>
        </mxCell>
        <mxCell id="u3Nmi6-fQTHw9-42GvUO-28" style="edgeStyle=orthogonalEdgeStyle;rounded=0;orthogonalLoop=1;jettySize=auto;html=1;exitX=1;exitY=0.5;exitDx=0;exitDy=0;exitPerimeter=0;entryX=0;entryY=0.5;entryDx=0;entryDy=0;" parent="1" source="u3Nmi6-fQTHw9-42GvUO-20" target="u3Nmi6-fQTHw9-42GvUO-26" edge="1">
          <mxGeometry relative="1" as="geometry" />
        </mxCell>
        <mxCell id="u3Nmi6-fQTHw9-42GvUO-32" value="yes" style="edgeLabel;html=1;align=center;verticalAlign=middle;resizable=0;points=[];" parent="u3Nmi6-fQTHw9-42GvUO-28" vertex="1" connectable="0">
          <mxGeometry x="-0.2" y="3" relative="1" as="geometry">
            <mxPoint as="offset" />
          </mxGeometry>
        </mxCell>
        <mxCell id="u3Nmi6-fQTHw9-42GvUO-20" value="Is Unlocked?" style="strokeWidth=2;html=1;shape=mxgraph.flowchart.decision;whiteSpace=wrap;fillColor=#fff2cc;strokeColor=#d6b656;" parent="1" vertex="1">
          <mxGeometry x="335" y="380" width="100" height="50" as="geometry" />
        </mxCell>
        <mxCell id="u3Nmi6-fQTHw9-42GvUO-25" value="Set Red" style="rounded=1;whiteSpace=wrap;html=1;absoluteArcSize=1;arcSize=14;strokeWidth=2;fillColor=#dae8fc;strokeColor=#6c8ebf;" parent="1" vertex="1">
          <mxGeometry x="460" y="310" width="50" height="50" as="geometry" />
        </mxCell>
        <mxCell id="u3Nmi6-fQTHw9-42GvUO-26" value="Set Blue" style="rounded=1;whiteSpace=wrap;html=1;absoluteArcSize=1;arcSize=14;strokeWidth=2;fillColor=#dae8fc;strokeColor=#6c8ebf;" parent="1" vertex="1">
          <mxGeometry x="460" y="380" width="50" height="50" as="geometry" />
        </mxCell>
        <mxCell id="u3Nmi6-fQTHw9-42GvUO-27" value="Set yellow" style="rounded=1;whiteSpace=wrap;html=1;absoluteArcSize=1;arcSize=14;strokeWidth=2;fillColor=#dae8fc;strokeColor=#6c8ebf;" parent="1" vertex="1">
          <mxGeometry x="360" y="450" width="50" height="50" as="geometry" />
        </mxCell>
        <mxCell id="u3Nmi6-fQTHw9-42GvUO-33" value="Ret" style="strokeWidth=2;html=1;shape=mxgraph.flowchart.terminator;whiteSpace=wrap;fillColor=#ffe6cc;strokeColor=#d79b00;" parent="1" vertex="1">
          <mxGeometry x="355" y="520" width="60" height="20" as="geometry" />
        </mxCell>
        <mxCell id="u3Nmi6-fQTHw9-42GvUO-34" style="edgeStyle=orthogonalEdgeStyle;rounded=0;orthogonalLoop=1;jettySize=auto;html=1;exitX=0.5;exitY=1;exitDx=0;exitDy=0;entryX=0.5;entryY=0;entryDx=0;entryDy=0;entryPerimeter=0;" parent="1" source="u3Nmi6-fQTHw9-42GvUO-27" target="u3Nmi6-fQTHw9-42GvUO-33" edge="1">
          <mxGeometry relative="1" as="geometry" />
        </mxCell>
        <mxCell id="u3Nmi6-fQTHw9-42GvUO-35" style="edgeStyle=orthogonalEdgeStyle;rounded=0;orthogonalLoop=1;jettySize=auto;html=1;exitX=0.5;exitY=1;exitDx=0;exitDy=0;entryX=1;entryY=0.5;entryDx=0;entryDy=0;entryPerimeter=0;" parent="1" source="u3Nmi6-fQTHw9-42GvUO-26" target="u3Nmi6-fQTHw9-42GvUO-33" edge="1">
          <mxGeometry relative="1" as="geometry" />
        </mxCell>
        <mxCell id="u3Nmi6-fQTHw9-42GvUO-37" style="edgeStyle=orthogonalEdgeStyle;rounded=0;orthogonalLoop=1;jettySize=auto;html=1;exitX=0.5;exitY=1;exitDx=0;exitDy=0;entryX=1;entryY=0.5;entryDx=0;entryDy=0;entryPerimeter=0;" parent="1" source="u3Nmi6-fQTHw9-42GvUO-25" target="u3Nmi6-fQTHw9-42GvUO-33" edge="1">
          <mxGeometry relative="1" as="geometry">
            <Array as="points">
              <mxPoint x="520" y="360" />
              <mxPoint x="520" y="530" />
            </Array>
          </mxGeometry>
        </mxCell>
        <mxCell id="u3Nmi6-fQTHw9-42GvUO-38" style="edgeStyle=orthogonalEdgeStyle;rounded=0;orthogonalLoop=1;jettySize=auto;html=1;exitX=0.5;exitY=1;exitDx=0;exitDy=0;exitPerimeter=0;entryX=0.5;entryY=0;entryDx=0;entryDy=0;entryPerimeter=0;" parent="1" source="u3Nmi6-fQTHw9-42GvUO-18" target="u3Nmi6-fQTHw9-42GvUO-19" edge="1">
          <mxGeometry relative="1" as="geometry" />
        </mxCell>
        <mxCell id="9X_kFh0ea2oafQ-Dl5tj-11" style="edgeStyle=orthogonalEdgeStyle;rounded=0;orthogonalLoop=1;jettySize=auto;html=1;exitX=0;exitY=0.5;exitDx=0;exitDy=0;exitPerimeter=0;entryX=0;entryY=0.5;entryDx=0;entryDy=0;" edge="1" parent="1" source="9X_kFh0ea2oafQ-Dl5tj-2" target="9X_kFh0ea2oafQ-Dl5tj-6">
          <mxGeometry relative="1" as="geometry" />
        </mxCell>
        <mxCell id="9X_kFh0ea2oafQ-Dl5tj-12" value="No" style="edgeLabel;html=1;align=center;verticalAlign=middle;resizable=0;points=[];" vertex="1" connectable="0" parent="9X_kFh0ea2oafQ-Dl5tj-11">
          <mxGeometry x="-0.392" y="1" relative="1" as="geometry">
            <mxPoint as="offset" />
          </mxGeometry>
        </mxCell>
        <mxCell id="9X_kFh0ea2oafQ-Dl5tj-14" value="Yes" style="edgeStyle=orthogonalEdgeStyle;rounded=0;orthogonalLoop=1;jettySize=auto;html=1;" edge="1" parent="1" target="9X_kFh0ea2oafQ-Dl5tj-13">
          <mxGeometry relative="1" as="geometry">
            <mxPoint x="210" y="540" as="sourcePoint" />
          </mxGeometry>
        </mxCell>
        <mxCell id="9X_kFh0ea2oafQ-Dl5tj-2" value="Pattern Selected?" style="strokeWidth=2;html=1;shape=mxgraph.flowchart.decision;whiteSpace=wrap;fillColor=#fff2cc;strokeColor=#d6b656;" vertex="1" parent="1">
          <mxGeometry x="160" y="490" width="100" height="50" as="geometry" />
        </mxCell>
        <mxCell id="9X_kFh0ea2oafQ-Dl5tj-6" value="Unlocked state" style="rounded=1;whiteSpace=wrap;html=1;absoluteArcSize=1;arcSize=14;strokeWidth=2;fillColor=#dae8fc;strokeColor=#6c8ebf;" vertex="1" parent="1">
          <mxGeometry x="185" y="430" width="50" height="50" as="geometry" />
        </mxCell>
        <mxCell id="9X_kFh0ea2oafQ-Dl5tj-8" style="edgeStyle=orthogonalEdgeStyle;rounded=0;orthogonalLoop=1;jettySize=auto;html=1;exitX=0.5;exitY=1;exitDx=0;exitDy=0;entryX=0.5;entryY=0;entryDx=0;entryDy=0;entryPerimeter=0;" edge="1" parent="1" source="9X_kFh0ea2oafQ-Dl5tj-6" target="9X_kFh0ea2oafQ-Dl5tj-2">
          <mxGeometry relative="1" as="geometry" />
        </mxCell>
        <mxCell id="9X_kFh0ea2oafQ-Dl5tj-15" style="edgeStyle=orthogonalEdgeStyle;rounded=0;orthogonalLoop=1;jettySize=auto;html=1;exitX=0;exitY=0.5;exitDx=0;exitDy=0;exitPerimeter=0;entryX=0.5;entryY=0;entryDx=0;entryDy=0;" edge="1" parent="1" source="9X_kFh0ea2oafQ-Dl5tj-13">
          <mxGeometry relative="1" as="geometry">
            <mxPoint x="105" y="600" as="targetPoint" />
          </mxGeometry>
        </mxCell>
        <mxCell id="9X_kFh0ea2oafQ-Dl5tj-17" value="No" style="edgeLabel;html=1;align=center;verticalAlign=middle;resizable=0;points=[];" vertex="1" connectable="0" parent="9X_kFh0ea2oafQ-Dl5tj-15">
          <mxGeometry x="-0.3143" y="1" relative="1" as="geometry">
            <mxPoint as="offset" />
          </mxGeometry>
        </mxCell>
        <mxCell id="9X_kFh0ea2oafQ-Dl5tj-26" style="edgeStyle=orthogonalEdgeStyle;rounded=0;orthogonalLoop=1;jettySize=auto;html=1;exitX=1;exitY=0.5;exitDx=0;exitDy=0;exitPerimeter=0;entryX=0.5;entryY=0;entryDx=0;entryDy=0;" edge="1" parent="1" source="9X_kFh0ea2oafQ-Dl5tj-13" target="9X_kFh0ea2oafQ-Dl5tj-27">
          <mxGeometry relative="1" as="geometry">
            <mxPoint x="300" y="600" as="targetPoint" />
            <Array as="points">
              <mxPoint x="300" y="585" />
              <mxPoint x="300" y="600" />
            </Array>
          </mxGeometry>
        </mxCell>
        <mxCell id="9X_kFh0ea2oafQ-Dl5tj-29" value="Yes" style="edgeLabel;html=1;align=center;verticalAlign=middle;resizable=0;points=[];" vertex="1" connectable="0" parent="9X_kFh0ea2oafQ-Dl5tj-26">
          <mxGeometry x="-0.4" relative="1" as="geometry">
            <mxPoint as="offset" />
          </mxGeometry>
        </mxCell>
        <mxCell id="9X_kFh0ea2oafQ-Dl5tj-13" value="Same as current pattern?" style="strokeWidth=2;html=1;shape=mxgraph.flowchart.decision;whiteSpace=wrap;fillColor=#fff2cc;strokeColor=#d6b656;" vertex="1" parent="1">
          <mxGeometry x="160" y="560" width="100" height="50" as="geometry" />
        </mxCell>
        <mxCell id="9X_kFh0ea2oafQ-Dl5tj-20" style="edgeStyle=orthogonalEdgeStyle;rounded=0;orthogonalLoop=1;jettySize=auto;html=1;exitX=0;exitY=0.5;exitDx=0;exitDy=0;exitPerimeter=0;entryX=0.5;entryY=0;entryDx=0;entryDy=0;" edge="1" parent="1" source="9X_kFh0ea2oafQ-Dl5tj-18" target="9X_kFh0ea2oafQ-Dl5tj-22">
          <mxGeometry relative="1" as="geometry">
            <mxPoint x="20" y="730" as="targetPoint" />
            <Array as="points">
              <mxPoint x="21" y="625" />
              <mxPoint x="21" y="640" />
            </Array>
          </mxGeometry>
        </mxCell>
        <mxCell id="9X_kFh0ea2oafQ-Dl5tj-21" value="No" style="edgeLabel;html=1;align=center;verticalAlign=middle;resizable=0;points=[];" vertex="1" connectable="0" parent="9X_kFh0ea2oafQ-Dl5tj-20">
          <mxGeometry x="-0.0792" y="-2" relative="1" as="geometry">
            <mxPoint as="offset" />
          </mxGeometry>
        </mxCell>
        <mxCell id="9X_kFh0ea2oafQ-Dl5tj-23" style="edgeStyle=orthogonalEdgeStyle;rounded=0;orthogonalLoop=1;jettySize=auto;html=1;exitX=1;exitY=0.5;exitDx=0;exitDy=0;exitPerimeter=0;" edge="1" parent="1" source="9X_kFh0ea2oafQ-Dl5tj-18">
          <mxGeometry relative="1" as="geometry">
            <mxPoint x="180" y="650" as="targetPoint" />
          </mxGeometry>
        </mxCell>
        <mxCell id="9X_kFh0ea2oafQ-Dl5tj-25" value="Yes" style="edgeLabel;html=1;align=center;verticalAlign=middle;resizable=0;points=[];" vertex="1" connectable="0" parent="9X_kFh0ea2oafQ-Dl5tj-23">
          <mxGeometry x="-0.6889" y="2" relative="1" as="geometry">
            <mxPoint as="offset" />
          </mxGeometry>
        </mxCell>
        <mxCell id="9X_kFh0ea2oafQ-Dl5tj-18" value="Previously selected?" style="strokeWidth=2;html=1;shape=mxgraph.flowchart.decision;whiteSpace=wrap;fillColor=#fff2cc;strokeColor=#d6b656;" vertex="1" parent="1">
          <mxGeometry x="60" y="600" width="100" height="50" as="geometry" />
        </mxCell>
        <mxCell id="9X_kFh0ea2oafQ-Dl5tj-22" value="Start new within 1s" style="rounded=1;whiteSpace=wrap;html=1;absoluteArcSize=1;arcSize=14;strokeWidth=2;fillColor=#dae8fc;strokeColor=#6c8ebf;" vertex="1" parent="1">
          <mxGeometry x="10" y="640" width="50" height="50" as="geometry" />
        </mxCell>
        <mxCell id="9X_kFh0ea2oafQ-Dl5tj-24" value="Start where left off" style="rounded=1;whiteSpace=wrap;html=1;absoluteArcSize=1;arcSize=14;strokeWidth=2;fillColor=#dae8fc;strokeColor=#6c8ebf;" vertex="1" parent="1">
          <mxGeometry x="160" y="650" width="50" height="50" as="geometry" />
        </mxCell>
        <mxCell id="9X_kFh0ea2oafQ-Dl5tj-27" value="Restart pattern" style="rounded=1;whiteSpace=wrap;html=1;absoluteArcSize=1;arcSize=14;strokeWidth=2;fillColor=#dae8fc;strokeColor=#6c8ebf;" vertex="1" parent="1">
          <mxGeometry x="280" y="600" width="50" height="50" as="geometry" />
        </mxCell>
        <mxCell id="9X_kFh0ea2oafQ-Dl5tj-38" style="edgeStyle=orthogonalEdgeStyle;rounded=0;orthogonalLoop=1;jettySize=auto;html=1;exitX=0.5;exitY=1;exitDx=0;exitDy=0;exitPerimeter=0;entryX=0.5;entryY=0;entryDx=0;entryDy=0;" edge="1" parent="1" source="9X_kFh0ea2oafQ-Dl5tj-28" target="9X_kFh0ea2oafQ-Dl5tj-37">
          <mxGeometry relative="1" as="geometry" />
        </mxCell>
        <mxCell id="9X_kFh0ea2oafQ-Dl5tj-28" value="LEDPattern" style="strokeWidth=2;html=1;shape=mxgraph.flowchart.terminator;whiteSpace=wrap;fillColor=#ffe6cc;strokeColor=#d79b00;" vertex="1" parent="1">
          <mxGeometry x="530" y="100" width="80" height="40" as="geometry" />
        </mxCell>
        <mxCell id="9X_kFh0ea2oafQ-Dl5tj-30" value="Ret" style="strokeWidth=2;html=1;shape=mxgraph.flowchart.terminator;whiteSpace=wrap;fillColor=#ffe6cc;strokeColor=#d79b00;" vertex="1" parent="1">
          <mxGeometry x="545" y="350" width="60" height="20" as="geometry" />
        </mxCell>
        <mxCell id="9X_kFh0ea2oafQ-Dl5tj-34" style="edgeStyle=orthogonalEdgeStyle;rounded=0;orthogonalLoop=1;jettySize=auto;html=1;exitX=1;exitY=0.5;exitDx=0;exitDy=0;entryX=1;entryY=0.5;entryDx=0;entryDy=0;entryPerimeter=0;" edge="1" parent="1" source="9X_kFh0ea2oafQ-Dl5tj-27" target="9X_kFh0ea2oafQ-Dl5tj-2">
          <mxGeometry relative="1" as="geometry" />
        </mxCell>
        <mxCell id="9X_kFh0ea2oafQ-Dl5tj-35" style="edgeStyle=orthogonalEdgeStyle;rounded=0;orthogonalLoop=1;jettySize=auto;html=1;exitX=0;exitY=0.5;exitDx=0;exitDy=0;entryX=0;entryY=0.5;entryDx=0;entryDy=0;entryPerimeter=0;" edge="1" parent="1" source="9X_kFh0ea2oafQ-Dl5tj-22" target="9X_kFh0ea2oafQ-Dl5tj-2">
          <mxGeometry relative="1" as="geometry">
            <Array as="points">
              <mxPoint x="10" y="515" />
            </Array>
          </mxGeometry>
        </mxCell>
        <mxCell id="9X_kFh0ea2oafQ-Dl5tj-36" style="edgeStyle=orthogonalEdgeStyle;rounded=0;orthogonalLoop=1;jettySize=auto;html=1;exitX=1;exitY=0.5;exitDx=0;exitDy=0;entryX=1;entryY=0.5;entryDx=0;entryDy=0;entryPerimeter=0;" edge="1" parent="1" source="9X_kFh0ea2oafQ-Dl5tj-24" target="9X_kFh0ea2oafQ-Dl5tj-2">
          <mxGeometry relative="1" as="geometry">
            <Array as="points">
              <mxPoint x="350" y="675" />
              <mxPoint x="350" y="515" />
            </Array>
          </mxGeometry>
        </mxCell>
        <mxCell id="9X_kFh0ea2oafQ-Dl5tj-37" value="Start w/ 1s on resets" style="rounded=1;whiteSpace=wrap;html=1;absoluteArcSize=1;arcSize=14;strokeWidth=2;fillColor=#dae8fc;strokeColor=#6c8ebf;" vertex="1" parent="1">
          <mxGeometry x="545" y="150" width="50" height="50" as="geometry" />
        </mxCell>
        <mxCell id="9X_kFh0ea2oafQ-Dl5tj-42" style="edgeStyle=orthogonalEdgeStyle;rounded=0;orthogonalLoop=1;jettySize=auto;html=1;exitX=0;exitY=0.5;exitDx=0;exitDy=0;exitPerimeter=0;entryX=0;entryY=0.5;entryDx=0;entryDy=0;" edge="1" parent="1" source="9X_kFh0ea2oafQ-Dl5tj-40" target="9X_kFh0ea2oafQ-Dl5tj-37">
          <mxGeometry relative="1" as="geometry" />
        </mxCell>
        <mxCell id="9X_kFh0ea2oafQ-Dl5tj-43" value="No" style="edgeLabel;html=1;align=center;verticalAlign=middle;resizable=0;points=[];" vertex="1" connectable="0" parent="9X_kFh0ea2oafQ-Dl5tj-42">
          <mxGeometry x="0.072" y="-2" relative="1" as="geometry">
            <mxPoint as="offset" />
          </mxGeometry>
        </mxCell>
        <mxCell id="9X_kFh0ea2oafQ-Dl5tj-45" style="edgeStyle=orthogonalEdgeStyle;rounded=0;orthogonalLoop=1;jettySize=auto;html=1;exitX=0.5;exitY=1;exitDx=0;exitDy=0;exitPerimeter=0;entryX=0.5;entryY=0;entryDx=0;entryDy=0;" edge="1" parent="1" source="9X_kFh0ea2oafQ-Dl5tj-40" target="9X_kFh0ea2oafQ-Dl5tj-44">
          <mxGeometry relative="1" as="geometry" />
        </mxCell>
        <mxCell id="9X_kFh0ea2oafQ-Dl5tj-47" value="Yes" style="edgeLabel;html=1;align=center;verticalAlign=middle;resizable=0;points=[];" vertex="1" connectable="0" parent="9X_kFh0ea2oafQ-Dl5tj-45">
          <mxGeometry x="-0.36" y="-1" relative="1" as="geometry">
            <mxPoint as="offset" />
          </mxGeometry>
        </mxCell>
        <mxCell id="9X_kFh0ea2oafQ-Dl5tj-40" value="A/B key pressed?" style="strokeWidth=2;html=1;shape=mxgraph.flowchart.decision;whiteSpace=wrap;fillColor=#fff2cc;strokeColor=#d6b656;" vertex="1" parent="1">
          <mxGeometry x="520" y="210" width="100" height="50" as="geometry" />
        </mxCell>
        <mxCell id="9X_kFh0ea2oafQ-Dl5tj-41" style="edgeStyle=orthogonalEdgeStyle;rounded=0;orthogonalLoop=1;jettySize=auto;html=1;exitX=0.5;exitY=1;exitDx=0;exitDy=0;entryX=0.5;entryY=0;entryDx=0;entryDy=0;entryPerimeter=0;" edge="1" parent="1" source="9X_kFh0ea2oafQ-Dl5tj-37" target="9X_kFh0ea2oafQ-Dl5tj-40">
          <mxGeometry relative="1" as="geometry" />
        </mxCell>
        <mxCell id="9X_kFh0ea2oafQ-Dl5tj-44" value="increase/decrease base period, continue with selected pattern" style="rounded=1;whiteSpace=wrap;html=1;absoluteArcSize=1;arcSize=14;strokeWidth=2;fillColor=#dae8fc;strokeColor=#6c8ebf;" vertex="1" parent="1">
          <mxGeometry x="520" y="280" width="135" height="50" as="geometry" />
        </mxCell>
        <mxCell id="9X_kFh0ea2oafQ-Dl5tj-46" style="edgeStyle=orthogonalEdgeStyle;rounded=0;orthogonalLoop=1;jettySize=auto;html=1;exitX=0.5;exitY=1;exitDx=0;exitDy=0;entryX=0.5;entryY=0;entryDx=0;entryDy=0;entryPerimeter=0;" edge="1" parent="1" source="9X_kFh0ea2oafQ-Dl5tj-44" target="9X_kFh0ea2oafQ-Dl5tj-30">
          <mxGeometry relative="1" as="geometry" />
        </mxCell>
      </root>
    </mxGraphModel>
  </diagram>
</mxfile>
